<svg xmlns="http://www.w3.org/2000/svg" width="80" height="68" viewBox="0 0 80 68" id="dashboard">
  <g id="Page-1" fill="none" fill-rule="evenodd" stroke="none" stroke-width="1">
    <path id="G" fill="#3F4662" d="M40 0a39.587 39.587 0 0 0-17.719 4.132 2 2 0 1 0 1.774 3.584A35.634 35.634 0 0 1 40 4a35.99 35.99 0 0 1 26.82 60H13.18C.703 50.073.976 28.91 13.807 15.309a2 2 0 1 0-2.911-2.745c-14.505 15.379-14.528 39.392-.054 54.8A2 2 0 0 0 12.3 68h55.4a2 2 0 0 0 1.459-.632A39.989 39.989 0 0 0 40 0zM15.641 57.515a2 2 0 0 0 1.619.831l45.418.077a2 2 0 0 0 1.619-.826 30.015 30.015 0 0 0-33.217-46.25 2 2 0 1 0 1.187 3.82 26.009 26.009 0 0 1 29.368 39.254l-43.326-.073a26.01 26.01 0 0 1 .986-30.079 2 2 0 0 0-3.184-2.424 30.01 30.01 0 0 0-.47 35.67zM34.68 31.44a5.893 5.893 0 0 0-.68 2.78 6 6 0 1 0 6-6 5.686 5.686 0 0 0-2.4.52L23.46 13.66a2 2 0 0 0-2.92 2.72l14.14 15.06zm5.32.78a2 2 0 1 1-2 2 1.993 1.993 0 0 1 2-2z"></path>
  </g>
</svg>
